<?xml version="1.0" encoding="UTF-8" standalone="no"?>
<!-- Created with Inkscape (http://www.inkscape.org/) -->

<svg
   width="512"
   height="512"
   viewBox="0 0 135.46667 135.46667"
   version="1.1"
   id="svg5"
   inkscape:version="1.1 (c68e22c387, 2021-05-23)"
   sodipodi:docname="flag-en.svg"
   xmlns:inkscape="http://www.inkscape.org/namespaces/inkscape"
   xmlns:sodipodi="http://sodipodi.sourceforge.net/DTD/sodipodi-0.dtd"
   xmlns="http://www.w3.org/2000/svg"
   xmlns:svg="http://www.w3.org/2000/svg">
  <sodipodi:namedview
     id="namedview7"
     pagecolor="#505050"
     bordercolor="#eeeeee"
     borderopacity="1"
     inkscape:pageshadow="0"
     inkscape:pageopacity="0"
     inkscape:pagecheckerboard="0"
     inkscape:document-units="px"
     showgrid="false"
     inkscape:snap-global="true"
     inkscape:zoom="0.50585938"
     inkscape:cx="12.849421"
     inkscape:cy="32.617761"
     inkscape:window-width="1024"
     inkscape:window-height="745"
     inkscape:window-x="-8"
     inkscape:window-y="-8"
     inkscape:window-maximized="1"
     inkscape:current-layer="layer1" />
  <defs
     id="defs2" />
  <g
     inkscape:label="Capa 1"
     inkscape:groupmode="layer"
     id="layer1">
    <rect
       style="fill:#ffffff;stroke-width:0.235772"
       id="rect978"
       width="76.88649"
       height="42.889061"
       x="-137.03578"
       y="-84.732048" />
    <g
       id="g5639"
       transform="translate(165.80284,71.656115)">
      <g
         id="g874"
         transform="translate(18.829344,-10.983784)">
        <g
           id="g239"
           transform="translate(-184.92162,-61.393979)">
          <path
             style="fill:#eeeeee;stroke-width:0.264583"
             d="m 25.74081,121.93892 c -0.116371,-0.18216 -0.687835,-0.73023 -1.269918,-1.21793 -1.909287,-1.59972 -6.760974,-6.48004 -8.475401,-8.52543 -0.924207,-1.10261 -2.590842,-3.30527 -3.703634,-4.89479 l -2.023258,-2.89003 28.863126,-0.0673 c 15.87472,-0.037 41.851533,-0.037 57.726253,0 l 28.863122,0.0673 -2.0351,2.91041 c -3.57844,5.11757 -6.28013,8.06627 -12.94724,14.131 -0.57455,0.52264 -0.95448,0.80142 -0.84428,0.61952 0.15995,-0.26403 -8.28918,-0.33073 -41.899629,-0.33073 -27.99928,0 -42.045212,0.0886 -41.936459,0.26459 0.08994,0.14552 0.10288,0.26458 0.02876,0.26458 -0.07412,0 -0.229972,-0.14904 -0.346344,-0.33119 z M 1.7456897,82.847194 C 0.8262904,78.114309 0.5733151,76.165237 0.35963463,72.168195 L 0.18086993,68.824277 H 67.994851 135.80883 l -0.17876,3.343918 c -0.21368,3.997042 -0.46666,5.946114 -1.38606,10.678999 l -0.69386,3.571875 H 67.994851 2.4395541 Z M 0.28240449,63.422366 C 0.270916,63.143453 0.33344993,62.987182 0.42136877,63.0751 c 0.0879188,0.08792 0.0973185,0.316122 0.0208882,0.507119 -0.084462,0.211066 -0.14715669,0.148373 -0.15985248,-0.159853 z M 7.0453488,59.828443 C 5.6451457,58.809797 4.3743268,57.97636 4.2213066,57.97636 c -0.1530205,0 -0.9372312,0.486841 -1.742691,1.081868 C 1.6731559,59.653257 0.96200683,60.087962 0.89828442,60.02424 0.50711552,59.63307 2.9480834,49.273407 4.1861887,46.07011 4.4873486,45.29093 4.4671114,45.252124 5.4969063,48.583651 l 0.7360584,2.38125 3.5157781,0.132292 3.5157782,0.132292 -2.73119,1.963086 c -1.5021541,1.079699 -2.7560876,1.977721 -2.7865184,1.995607 -0.030431,0.01789 0.4033867,1.485982 0.9640396,3.262434 0.5606529,1.776453 0.9880828,3.229915 0.9498444,3.229915 -0.038238,0 -1.215145,-0.833438 -2.6153478,-1.852084 z m 15.9703352,1.78916 c 0,-0.05178 0.469317,-1.491115 1.042926,-3.198508 l 1.042927,-3.104356 -2.272386,-1.645754 c -3.89304,-2.819492 -3.903707,-2.55288 0.102545,-2.562989 l 3.487888,-0.0088 0.9981,-3.032591 c 0.548952,-1.667925 1.062998,-2.969307 1.14232,-2.891962 0.07932,0.07735 0.570658,1.412246 1.091858,2.966445 l 0.947635,2.825816 3.49886,0.132292 3.498858,0.132292 -2.573258,1.852083 c -1.415293,1.018646 -2.687061,1.927902 -2.826152,2.02057 -0.148492,0.09894 0.189698,1.491546 0.819227,3.373438 0.589666,1.762723 1.020318,3.204951 0.957006,3.204951 -0.06331,0 -1.260735,-0.833438 -2.660936,-1.852084 -1.400204,-1.018646 -2.662285,-1.852083 -2.804626,-1.852083 -0.142343,0 -1.287624,0.751628 -2.545069,1.670288 -2.430557,1.775703 -2.947723,2.121501 -2.947723,1.970955 z m 24.499605,-0.618476 c 0.105166,-0.425596 0.52937,-1.778408 0.942678,-3.006254 0.413306,-1.227844 0.751467,-2.368106 0.751467,-2.533912 0,-0.165807 -1.219914,-1.185268 -2.710918,-2.265472 l -2.710921,-1.964004 3.46674,-0.07356 3.466738,-0.07356 1.055703,-3.233732 1.055701,-3.23373 1.013442,3.233793 1.013441,3.233793 3.458893,0.0735 3.45889,0.0735 -2.212785,1.641274 c -1.217033,0.902702 -2.451954,1.800079 -2.744274,1.994172 -0.525283,0.348774 -0.520097,0.389382 0.444278,3.478623 0.53667,1.719149 0.938154,3.161668 0.892188,3.205594 -0.04597,0.04393 -1.206643,-0.741979 -2.579283,-1.746459 -1.37264,-1.00448 -2.612141,-1.826329 -2.754445,-1.826329 -0.206496,0 -3.435098,2.212353 -5.151379,3.529909 -0.276561,0.21231 -0.30839,0.108937 -0.156154,-0.507142 z M 67.994851,42.364779 v -8.732417 l 28.99744,0.06731 28.997439,0.06731 1.31793,2.38125 c 1.83222,3.31047 3.94766,8.181991 5.08194,11.702921 0.52653,1.634419 0.95734,3.033403 0.95734,3.108854 0,0.07545 -14.70422,0.137184 -32.67605,0.137184 H 67.994851 Z M 8.1635274,40.936529 6.6728302,39.841238 7.3248252,38.558327 c 0.3585972,-0.705604 0.7460499,-1.179341 0.8610063,-1.052754 0.221528,0.243944 1.6403752,4.388647 1.5320299,4.47533 -0.035,0.028 -0.7344503,-0.441966 -1.554334,-1.044374 z M 31.350059,40.113436 C 29.89485,39.032161 28.557292,38.1992 28.377703,38.262417 c -0.179586,0.06322 -1.405927,0.9072 -2.725203,1.875522 -1.319274,0.968323 -2.451169,1.708095 -2.515321,1.643944 -0.06415,-0.06415 0.346967,-1.4966 0.913596,-3.183215 l 1.030234,-3.066577 -2.789285,-2.007034 -2.789284,-2.007031 h 3.422602 3.422602 L 27.381089,28.3437 c 0.568394,-1.745878 1.117854,-3.085331 1.22102,-2.976562 0.103167,0.10877 0.592593,1.50745 1.087615,3.108179 l 0.900041,2.910417 3.386551,0.132292 3.386553,0.132292 -2.685087,1.944751 c -2.324048,1.683255 -2.660015,2.021228 -2.498614,2.513541 0.624718,1.905522 1.894334,5.990985 1.85892,5.981767 -0.0232,-0.006 -1.232821,-0.895663 -2.688029,-1.976941 z m 24.265001,-0.01106 c -1.584555,-1.157055 -2.856338,-1.91103 -3.042708,-1.803863 -0.176115,0.101269 -1.371677,0.948978 -2.656806,1.883801 -1.285129,0.934821 -2.381903,1.654369 -2.437278,1.598994 -0.05538,-0.05537 0.311483,-1.371754 0.815242,-2.925286 0.503759,-1.553531 0.910807,-2.976912 0.904552,-3.163068 -0.0062,-0.186155 -1.185584,-1.171903 -2.620729,-2.190549 l -2.609356,-1.852083 3.374898,-0.07355 3.374896,-0.07355 1.031769,-3.296549 1.031769,-3.296551 1.079858,3.237808 1.079854,3.23781 3.36673,0.132291 3.366731,0.132292 -2.551668,1.825043 c -1.403417,1.003773 -2.60232,1.957046 -2.664233,2.118386 -0.06191,0.161341 0.357169,1.691556 0.931294,3.400478 0.574122,1.708926 1.02222,3.104661 0.995772,3.101634 -0.02646,-0.003 -1.273212,-0.900094 -2.770587,-1.993488 z m -45.291119,-6.66656 c 0.0045,-0.1089 0.272432,-0.618353 0.595312,-1.132118 0.507876,-0.80813 0.692783,-0.915067 1.370944,-0.792861 l 0.783888,0.141261 -1.379201,0.990857 c -0.75856,0.544973 -1.375485,0.901758 -1.370943,0.792861 z m 7.267784,-10.119874 c 0.263389,-0.291041 0.538421,-0.529166 0.611181,-0.529166 0.07276,0 -0.08321,0.238125 -0.346598,0.529166 -0.263389,0.291042 -0.53842,0.529167 -0.61118,0.529167 -0.07276,0 0.08321,-0.238125 0.346597,-0.529167 z m 5.468984,-1.336537 c 0.749502,-2.023566 1.567095,-4.812454 1.44625,-4.933298 -0.145609,-0.14561 4.764118,-3.909517 6.247787,-4.789694 0.400183,-0.237406 0.727372,-0.495273 0.727086,-0.573038 -2.65e-4,-0.07776 1.381628,-0.104203 3.070921,-0.05875 l 3.071442,0.08264 -2.343317,1.711122 c -1.288825,0.941117 -2.569834,1.863242 -2.846684,2.049167 -0.486272,0.326566 -0.46646,0.448372 0.583354,3.586646 l 1.08672,3.248599 -0.69333,-0.454286 c -0.381331,-0.249857 -1.639782,-1.147565 -2.796559,-1.994907 l -2.103233,-1.54062 -1.887835,1.386956 c -3.273386,2.404895 -3.713316,2.686376 -3.562602,2.279465 z m 24.296642,0.08116 c 0,-0.125481 0.416719,-1.465561 0.926042,-2.977954 0.509322,-1.512393 0.926041,-2.893743 0.926041,-3.069665 0,-0.175923 -1.216816,-1.194326 -2.704036,-2.263118 l -2.704037,-1.943259 3.441978,-0.07344 3.441975,-0.07344 1.0769,-3.2338554 1.076899,-3.233855 1.029433,3.239855 1.02943,3.2398554 3.54035,0.0013 3.540347,0.0013 -2.614305,1.886049 c -1.437871,1.037327 -2.71254,1.97495 -2.832603,2.083607 -0.120063,0.108656 0.207359,1.541784 0.727604,3.184729 0.520245,1.642944 0.945899,3.086161 0.945899,3.207149 0,0.120988 -1.207844,-0.667612 -2.6841,-1.752445 l -2.6841,-1.972424 -1.166546,0.848855 c -3.755062,2.732416 -4.313171,3.107765 -4.313171,2.900756 z M 22.221934,18.685734 c 0.341774,-0.363802 0.680939,-0.661458 0.753699,-0.661458 0.07276,0 -0.147342,0.297656 -0.489116,0.661458 -0.341774,0.363802 -0.680939,0.661458 -0.7537,0.661458 -0.07276,0 0.147342,-0.297656 0.489117,-0.661458 z m 90.982916,-0.330729 c -0.32911,-0.419644 -0.31975,-0.429003 0.0999,-0.0999 0.44073,0.345643 0.58089,0.562916 0.36312,0.562916 -0.0549,0 -0.2633,-0.20836 -0.46302,-0.463021 z M 67.994851,8.3266604 v -7.316365 l 3.350567,0.1791201 c 12.6769,0.6777028 24.180962,4.5272535 34.601602,11.5785765 1.46376,0.990475 2.95903,2.039905 3.32283,2.332066 l 0.66146,0.531201 -20.968229,0.0059 -20.96823,0.0059 z"
             id="path257" />
          <path
             style="fill:#eabec6;stroke-width:0.264583"
             d="m 35.252663,86.352934 c 18.008204,-0.03753 47.476173,-0.03753 65.484377,0 18.0082,0.03753 3.27422,0.06823 -32.742189,0.06823 -36.016407,0 -50.750392,-0.0307 -32.742188,-0.06823 z M 117.70277,22.852922 c -0.32911,-0.419644 -0.31975,-0.429003 0.0999,-0.0999 0.44072,0.345643 0.58088,0.562915 0.36312,0.562915 -0.0549,0 -0.2633,-0.208359 -0.46302,-0.46302 z"
             id="path255" />
          <path
             style="fill:#e89caa;stroke-width:0.264583"
             d="m 116.90902,22.059171 c -0.32911,-0.419644 -0.31975,-0.429002 0.0999,-0.09989 0.44072,0.345643 0.58088,0.562915 0.36312,0.562915 -0.0549,0 -0.2633,-0.208359 -0.46302,-0.463021 z m -1.95063,-1.918229 c -0.41825,-0.436562 -0.70092,-0.79375 -0.62816,-0.79375 0.0728,0 0.47449,0.357188 0.89275,0.79375 0.41825,0.436563 0.70093,0.79375 0.62817,0.79375 -0.0728,0 -0.4745,-0.357187 -0.89276,-0.79375 z M 78.531748,15.70924 c 5.868054,-0.03974 15.393054,-0.03972 21.166667,3.6e-5 5.773615,0.03976 0.972475,0.07227 -10.669188,0.07225 -11.641667,-2e-5 -16.365533,-0.03255 -10.497479,-0.07229 z"
             id="path253" />
          <path
             style="fill:#e27488;stroke-width:0.264583"
             d="m 39.089121,104.08002 c 15.898152,-0.0377 41.913309,-0.0377 57.81146,0 15.898149,0.0377 2.890573,0.0685 -28.90573,0.0685 -31.796303,0 -44.803881,-0.0308 -28.90573,-0.0685 z M 135.48449,64.745283 c -0.0115,-0.278913 0.0511,-0.435184 0.13897,-0.347266 0.0879,0.08792 0.0973,0.316122 0.0209,0.507119 -0.0845,0.211066 -0.14715,0.148373 -0.15985,-0.159853 z M 82.348498,33.436303 c 7.967265,-0.03889 21.004612,-0.03889 28.971872,0 7.96727,0.03889 1.4486,0.07071 -14.485935,0.07071 -15.934531,0 -22.453203,-0.03182 -14.485937,-0.07071 z M 116.11527,21.265421 c -0.32911,-0.419644 -0.31975,-0.429002 0.0999,-0.09989 0.44072,0.345643 0.58088,0.562915 0.36312,0.562915 -0.0549,0 -0.2633,-0.208359 -0.46302,-0.463021 z"
             id="path251" />
          <path
             style="fill:#6594cc;stroke-width:0.264583"
             d="m 0.33357934,65.12011 c 0,-0.654844 0.051598,-0.922734 0.11466219,-0.595312 0.0630642,0.327421 0.0630642,0.863203 0,1.190625 -0.0630642,0.327421 -0.11466219,0.05953 -0.11466219,-0.595313 z m 0.23429664,-3.439583 c 0,-0.363802 0.0600535,-0.512631 0.13345213,-0.33073 0.0733987,0.181901 0.0733987,0.479558 0,0.661459 -0.0733987,0.181901 -0.13345213,0.03307 -0.13345213,-0.330729 z M 22.7511,61.724625 c 0,-0.121269 0.173357,-0.220488 0.385236,-0.220488 0.211881,0 0.323916,0.09922 0.248969,0.220488 -0.176604,0.28575 -0.634205,0.28575 -0.634205,0 z m 24.501214,0 c -0.07495,-0.121269 0.03185,-0.220488 0.237328,-0.220488 0.205479,0 0.312278,0.09922 0.237329,0.220488 -0.172387,0.278926 -0.30227,0.278926 -0.474657,0 z m 9.121759,-6.239759 c -0.01148,-0.278913 0.05104,-0.435184 0.138965,-0.347266 0.08792,0.08792 0.09732,0.316122 0.02087,0.507119 -0.08446,0.211066 -0.147156,0.148373 -0.15985,-0.159853 z M 43.884017,51.427922 c -0.329107,-0.419645 -0.319749,-0.429003 0.0999,-0.0999 0.44073,0.345644 0.580888,0.562917 0.363125,0.562917 -0.05494,0 -0.2633,-0.208359 -0.463021,-0.463021 z m 8.914302,-6.603172 c -0.143584,-0.377084 -0.113194,-0.407474 0.148114,-0.148114 0.180822,0.179478 0.262115,0.39297 0.180652,0.474433 -0.08146,0.08146 -0.229407,-0.06538 -0.328766,-0.326319 z m -5.684663,-2.833634 c -0.01148,-0.278914 0.05104,-0.435184 0.138965,-0.347266 0.08792,0.08792 0.09732,0.316121 0.02088,0.507119 -0.08446,0.211066 -0.147156,0.148373 -0.15985,-0.159853 z m 10.992393,0.163755 c -0.07175,-0.116088 -0.0245,-0.382476 0.104966,-0.591976 0.177511,-0.287221 0.224443,-0.235307 0.19082,0.211072 -0.04838,0.642292 -0.09619,0.703858 -0.295786,0.380904 z M 28.571934,38.397193 c -0.238467,-0.154109 -0.2711,-0.258099 -0.08176,-0.260533 0.173313,-0.0021 0.3887,0.115012 0.478637,0.260533 0.203014,0.328488 0.111421,0.328488 -0.396875,0 z m 3.439583,-2.56934 c 0,-0.151955 0.208359,-0.43969 0.463021,-0.639411 0.428297,-0.335891 0.433911,-0.32344 0.07487,0.166042 -0.213484,0.291042 -0.421844,0.578776 -0.463021,0.639411 -0.04118,0.06063 -0.07487,-0.01409 -0.07487,-0.166042 z m 5.154441,-4.037259 c 0.09832,-0.159086 -1.127437,-0.288054 -3.22553,-0.339373 l -3.384119,-0.08278 3.670416,-0.0575 c 3.236603,-0.0507 3.631489,-0.01058 3.341042,0.339374 -0.366559,0.441676 -0.649033,0.540292 -0.401809,0.140276 z m 24.316402,0.04088 c 0.13158,-0.212905 -0.77212,-0.318556 -3.178625,-0.37161 -1.977591,-0.0436 -3.38047,-0.183102 -3.406166,-0.338714 -0.02402,-0.145521 0.0059,-0.175287 0.06655,-0.06615 0.06063,0.109141 1.648134,0.198438 3.527777,0.198438 3.159741,0 3.943411,0.172929 3.112071,0.686723 -0.18633,0.11516 -0.233759,0.07277 -0.12161,-0.108691 z M 43.652703,31.466199 c 2.64e-4,-0.101266 1.602274,-0.220329 3.560021,-0.264583 1.957748,-0.04426 3.475795,0.0021 3.373438,0.102838 -0.246624,0.242914 -6.934081,0.39892 -6.933459,0.161745 z M 11.6386,31.306571 c 0,-0.1163 0.416719,-0.162806 0.926042,-0.103344 1.191822,0.139137 1.191822,0.314799 0,0.314799 -0.509323,0 -0.926042,-0.09515 -0.926042,-0.211455 z m 9.47043,0.01476 c 1.061393,-0.05035 2.728268,-0.05001 3.704167,7.93e-4 0.975899,0.05076 0.107487,0.09196 -1.929805,0.09154 -2.037292,-5.3e-4 -2.835755,-0.04194 -1.774362,-0.0923 z m -5.766263,-5.227268 c 0.181157,-0.218281 0.388908,-0.396875 0.461668,-0.396875 0.07276,0 -0.01593,0.178594 -0.197085,0.396875 -0.181157,0.218282 -0.388908,0.396875 -0.461669,0.396875 -0.07276,0 0.01593,-0.178593 0.197086,-0.396875 z M 28.48374,25.25622 c -0.09702,-0.09701 -0.17639,-0.29942 -0.17639,-0.449792 0,-0.165789 0.123235,-0.150167 0.31309,0.03969 0.172201,0.1722 0.251576,0.374606 0.17639,0.449792 -0.07519,0.07518 -0.216078,0.05733 -0.31309,-0.03969 z M 16.797975,24.374276 c 0.263389,-0.291042 0.538421,-0.529167 0.611181,-0.529167 0.07276,0 -0.08321,0.238125 -0.346598,0.529167 -0.263389,0.291041 -0.53842,0.529166 -0.61118,0.529166 -0.07276,0 0.08321,-0.238125 0.346597,-0.529166 z m 5.953125,-2.07257 c 0,-0.121267 0.173357,-0.220486 0.385236,-0.220486 0.211881,0 0.323916,0.09922 0.248969,0.220486 -0.176604,0.285751 -0.634205,0.285751 -0.634205,0 z m -3.96875,-0.06399 c 0,-0.07276 0.595313,-0.718653 1.322917,-1.435316 0.727604,-0.716664 1.322917,-1.243493 1.322917,-1.170733 0,0.07276 -0.595313,0.718653 -1.322917,1.435316 -0.727604,0.716663 -1.322917,1.243493 -1.322917,1.170733 z m 4.630209,-4.478025 c 0.263389,-0.291041 0.53842,-0.529166 0.61118,-0.529166 0.07276,0 -0.08321,0.238125 -0.346597,0.529166 -0.263389,0.291042 -0.538421,0.529167 -0.611181,0.529167 -0.07276,0 0.08321,-0.238125 0.346598,-0.529167 z m 32.961514,-1.697743 c -0.01148,-0.278915 0.05104,-0.435184 0.138965,-0.347266 0.08792,0.08792 0.09732,0.316122 0.02087,0.507119 -0.08446,0.211066 -0.147156,0.148372 -0.15985,-0.159853 z M 52.798319,5.401832 c -0.143584,-0.3770836 -0.113194,-0.4074747 0.148114,-0.1481124 0.180822,0.1794759 0.262115,0.39297 0.180652,0.4744318 -0.08146,0.081462 -0.229407,-0.065382 -0.328766,-0.3263194 z m 0.980689,-2.8832426 c 0.08792,-0.087919 0.316122,-0.097319 0.507119,-0.020888 0.211066,0.084462 0.148373,0.1471567 -0.159853,0.1598525 -0.278913,0.011488 -0.435184,-0.051046 -0.347266,-0.1389645 z m 2.910417,-0.5291667 c 0.08792,-0.087919 0.316121,-0.097319 0.507119,-0.020888 0.211066,0.084462 0.148373,0.1471566 -0.159854,0.1598524 -0.278913,0.011488 -0.435184,-0.051045 -0.347265,-0.1389644 z m 1.5875,-0.2645833 c 0.08792,-0.087919 0.316121,-0.097319 0.507119,-0.020888 0.211066,0.084462 0.148373,0.1471567 -0.159854,0.1598524 -0.278913,0.011489 -0.435184,-0.051045 -0.347265,-0.1389644 z M 60.520372,1.44488 c 0.181901,-0.073399 0.479557,-0.073399 0.661458,0 0.181901,0.073399 0.03307,0.1334522 -0.330729,0.1334522 -0.363802,0 -0.51263,-0.060053 -0.330729,-0.1334522 z m 3.175,-0.2760801 c 0.327422,-0.063064 0.863203,-0.063064 1.190625,0 0.327422,0.063064 0.05953,0.1146622 -0.595312,0.1146622 -0.654844,0 -0.922735,-0.051598 -0.595313,-0.1146622 z"
             id="path249" />
          <path
             style="fill:#df5069;stroke-width:0.264583"
             d="m 64.362342,136.39776 c 0.08792,-0.0879 0.316121,-0.0973 0.507119,-0.0209 0.211066,0.0845 0.148373,0.14716 -0.159854,0.15985 -0.278913,0.0115 -0.435184,-0.051 -0.347265,-0.13896 z m 6.614583,0 c 0.08792,-0.0879 0.316122,-0.0973 0.507119,-0.0209 0.211066,0.0845 0.148373,0.14716 -0.159853,0.15985 -0.278913,0.0115 -0.435184,-0.051 -0.347266,-0.13896 z M 26.190666,121.93938 c 10e-6,-0.10914 18.841659,-0.16966 41.870331,-0.1345 23.028673,0.0352 35.083753,0.0946 26.789063,0.1321 -40.009663,0.18084 -68.659409,0.18184 -68.659394,0.002 z M 135.48449,65.539033 c -0.0115,-0.278913 0.0511,-0.435184 0.13897,-0.347266 0.0879,0.08792 0.0973,0.316122 0.0209,0.507119 -0.0845,0.211066 -0.14715,0.148373 -0.15985,-0.159853 z"
             id="path247" />
          <path
             style="fill:#db2f4e;stroke-width:0.264583"
             d="m 65.415164,136.37523 c 0.254661,-0.0665 0.67138,-0.0665 0.926041,0 0.254662,0.0666 0.0463,0.121 -0.46302,0.121 -0.509323,0 -0.717683,-0.0545 -0.463021,-0.121 z m 4.233333,0 c 0.254662,-0.0665 0.67138,-0.0665 0.926042,0 0.254661,0.0666 0.0463,0.121 -0.463021,0.121 -0.509323,0 -0.717682,-0.0545 -0.463021,-0.121 z M 135.51518,66.575318 c -0.005,-0.436562 0.0495,-0.647186 0.12197,-0.468055 0.0725,0.17913 0.0769,0.536318 0.01,0.79375 -0.0671,0.257431 -0.12638,0.110868 -0.13177,-0.325695 z m -51.1618,-15.41195 c 9.069952,-0.03861 23.8337,-0.0386 32.80833,1.6e-5 8.97464,0.03862 1.55377,0.0702 -16.49082,0.0702 -18.04458,-1e-5 -25.387461,-0.0316 -16.31751,-0.07021 z m 33.87856,-27.516696 c -0.32911,-0.419644 -0.31975,-0.429003 0.0999,-0.0999 0.44073,0.345643 0.58089,0.562915 0.36313,0.562915 -0.0549,0 -0.2633,-0.208359 -0.46302,-0.46302 z m -5.29167,-5.291667 c -0.32911,-0.419644 -0.31975,-0.429003 0.0999,-0.0999 0.44073,0.345643 0.58089,0.562916 0.36313,0.562916 -0.0549,0 -0.2633,-0.20836 -0.46302,-0.463021 z"
             id="path245" />
          <path
             style="fill:#0051b3;stroke-width:0.264583"
             d="M 0.37024504,66.244589 C 0.46465626,64.825761 0.61026268,62.93463 0.6938149,62.042077 l 0.15191306,-1.622824 1.68947624,-1.240499 1.6894761,-1.240502 2.7490844,2.00343 c 1.5119961,1.101884 2.8150622,2.003428 2.8957024,2.003428 0.08064,0 -0.2497957,-1.177121 -0.7343018,-2.615822 C 7.6645939,54.962547 7.5230638,55.499743 10.746334,53.21386 l 2.79812,-1.984375 -3.5522657,-0.07331 -3.552266,-0.07331 -0.941904,-2.946091 -0.9419037,-2.94609 1.0535684,-2.536852 c 0.5794624,-1.395267 1.0727241,-2.557724 1.0961371,-2.583235 0.023413,-0.02551 0.7463779,0.480115 1.6065892,1.123619 0.8602115,0.643504 1.602427,1.131599 1.6493683,1.084659 0.046941,-0.04694 -0.3134595,-1.269571 -0.80089,-2.716958 l -0.8862373,-2.63161 0.775529,-1.372706 c 0.541787,-0.958977 1.3457597,-1.794536 2.6674897,-2.772288 l 1.89196,-1.39958 -0.853223,-0.08291 c -0.469272,-0.0456 -0.853223,-0.148711 -0.853223,-0.229134 0,-0.216667 1.741918,-2.589874 3.557905,-4.847331 1.934736,-2.405073 5.553384,-6.202051 7.60847,-7.983423 l 1.509084,-1.308091 -0.911784,2.707467 c -0.50148,1.489106 -0.864002,2.755247 -0.805603,2.813646 0.0584,0.0584 1.218364,-0.712904 2.5777,-1.714006 1.359336,-1.001103 2.620817,-1.910376 2.803292,-2.020608 0.207245,-0.125195 1.362154,0.550485 3.07702,1.800214 1.509887,1.100349 2.808668,2.000634 2.88618,2.000634 0.07751,0 -0.354647,-1.502722 -0.960355,-3.339384 -1.08454,-3.288615 -1.093237,-3.34481 -0.572117,-3.696342 0.291042,-0.196328 1.593848,-1.134386 2.895127,-2.084575 l 2.36596,-1.727616 h -3.02269 -3.022693 l 0.945743,-0.642647 C 37.203111,8.0630263 46.232313,4.37902 52.693227,2.9290339 57.075555,1.9455332 63.879869,1.0953821 67.399539,1.0915842 l 0.595312,-6.424e-4 V 34.957609 68.824277 H 34.09672 0.19858827 Z m 25.42438896,-6.290635 2.732246,-1.991159 2.734506,1.980462 c 1.503979,1.089255 2.773241,1.869069 2.820583,1.732925 0.04734,-0.136146 -0.364006,-1.615062 -0.914112,-3.286479 -0.550103,-1.671416 -0.946025,-3.086582 -0.879826,-3.144812 0.0662,-0.05823 1.364734,-1.01528 2.885633,-2.126784 l 2.765269,-2.020914 H 34.370032 30.801128 L 29.91575,48.385214 C 28.430091,43.834523 28.660421,43.900992 27.394429,47.65761 l -1.114566,3.307291 -3.513927,0.132292 -3.513928,0.132292 2.669356,1.933413 c 1.468147,1.063377 2.728902,2.029757 2.80168,2.147515 0.07278,0.117755 -0.341138,1.623393 -0.919811,3.34586 -0.578673,1.722469 -1.052133,3.167102 -1.052133,3.210298 0,0.247184 0.580121,-0.117377 3.043534,-1.912617 z m 23.483505,0.58793 c 1.053618,-0.771773 2.288201,-1.662578 2.743514,-1.979567 l 0.827847,-0.576345 2.742094,1.985375 c 1.508152,1.09196 2.773797,1.890266 2.812548,1.774018 0.03875,-0.11625 -0.347332,-1.451946 -0.857959,-2.968212 -0.51063,-1.516266 -0.928415,-2.946016 -0.928415,-3.177217 0,-0.231204 1.129675,-1.228916 2.51039,-2.217137 1.380713,-0.988224 2.578365,-1.906757 2.661447,-2.041187 0.08944,-0.144721 -1.253982,-0.244419 -3.293563,-0.244419 h -3.444621 l -0.979969,-3.108854 c -0.538983,-1.70987 -1.070308,-3.212748 -1.180724,-3.339733 -0.110416,-0.126984 -0.662004,1.242235 -1.225749,3.042709 l -1.024988,3.273586 -3.55955,0.132292 -3.559549,0.132292 0.926042,0.651502 c 0.509323,0.358325 1.777775,1.277265 2.818784,2.042086 l 1.892744,1.390586 -1.029385,3.249581 c -0.566161,1.787269 -1.030941,3.279344 -1.032846,3.315724 -0.01111,0.212244 0.465603,-0.07989 2.181908,-1.33708 z M 26.375038,39.796212 c 1.047281,-0.769462 2.013968,-1.399019 2.148194,-1.399019 0.134226,0 1.401762,0.842237 2.816749,1.871638 1.414986,1.029402 2.629172,1.815169 2.698189,1.746153 0.06902,-0.06902 -0.299215,-1.466697 -0.818293,-3.105957 -0.519078,-1.639261 -0.943777,-3.072215 -0.943777,-3.184343 0,-0.11213 1.277097,-1.134263 2.837993,-2.271411 l 2.837995,-2.067539 -3.626374,-0.07358 -3.626374,-0.07358 -0.965388,-3.101425 C 29.202991,26.431374 28.68404,24.941871 28.580728,24.82715 28.477417,24.712429 27.932994,26.108209 27.3709,27.928884 l -1.021991,3.310319 -3.584842,0.07326 -3.584842,0.07327 2.350582,1.719792 c 1.292819,0.945885 2.571228,1.898385 2.840907,2.116667 0.472817,0.382704 0.452657,0.514969 -0.564606,3.704166 -0.580212,1.819011 -1.054949,3.345165 -1.05497,3.391453 -4.5e-5,0.100352 1.044834,-0.626702 3.6239,-2.521599 z m 24.362122,-0.05782 c 1.058531,-0.766106 2.092531,-1.32848 2.297779,-1.249719 0.205245,0.07876 1.512067,0.984337 2.904043,2.012392 1.391978,1.028057 2.530869,1.713817 2.530869,1.523915 0,-0.189902 -0.460766,-1.716789 -1.023927,-3.39308 l -1.023927,-3.047802 2.743719,-1.961396 c 1.509046,-1.078764 2.743719,-2.053161 2.743719,-2.165324 0,-0.112164 -1.537952,-0.203932 -3.417671,-0.203932 h -3.417668 l -1.124207,-3.373438 -1.124206,-3.373438 -1.102321,3.307292 -1.10232,3.307292 -3.483928,0.07383 c -1.916163,0.0406 -3.478855,0.159665 -3.472656,0.264583 0.0062,0.104915 1.256358,1.075335 2.778125,2.156489 1.52177,1.081151 2.766851,1.979697 2.766851,1.996768 0,0.01707 -0.47625,1.448631 -1.058333,3.18125 -0.582084,1.732618 -1.058334,3.259219 -1.058334,3.392448 0,0.133228 0.386954,-0.04969 0.859896,-0.406488 0.472943,-0.356796 1.725967,-1.275532 2.784497,-2.041639 z M 50.003184,20.544601 c 1.236927,-0.895162 2.389357,-1.711192 2.560955,-1.8134 0.179348,-0.106826 1.470565,0.652569 3.037068,1.786172 1.498788,1.084602 2.765356,1.931719 2.814592,1.882482 0.04924,-0.04924 -0.335176,-1.430736 -0.854255,-3.069996 -0.519078,-1.63926 -0.943776,-3.118805 -0.943776,-3.287878 0,-0.169072 1.219914,-1.191206 2.710918,-2.271409 l 2.710921,-1.964005 -3.499366,-0.07379 -3.499366,-0.07379 -0.965322,-3.1012116 C 53.544627,6.852112 53.015328,5.3523245 52.899329,5.224917 52.783333,5.0975099 52.218551,6.4667286 51.644257,8.2676255 l -1.04417,3.2743585 -3.494559,0.132291 -3.494558,0.132292 2.774823,2.02884 2.77482,2.02884 -1.033923,3.228477 c -0.568658,1.775663 -1.033923,3.280728 -1.033923,3.344588 0,0.178595 0.476422,-0.131233 2.910417,-1.892711 z"
             id="path243" />
          <path
             style="fill:#d70026;stroke-width:0.264583"
             d="m 63.532905,136.27645 c -9.888758,-0.64262 -19.570516,-3.47589 -28.191686,-8.25004 -2.485292,-1.37628 -6.883837,-4.23466 -8.224494,-5.34466 l -0.79375,-0.65719 h 41.671876 41.671879 l -0.79375,0.65922 c -0.43657,0.36257 -1.92485,1.41073 -3.30729,2.32925 -12.537961,8.33041 -27.103755,12.23357 -42.032785,11.26342 z M 8.6859279,101.30188 C 6.782476,97.843243 5.0028318,93.72436 3.7099654,89.785307 L 2.6919489,86.683652 35.343399,86.616469 c 17.958298,-0.03695 47.344607,-0.03695 65.302901,0 l 32.65145,0.06718 -1.01801,3.101655 c -1.29287,3.939053 -3.07251,8.057936 -4.97596,11.516576 l -1.49253,2.71198 H 67.994851 10.178458 Z M 67.994851,60.093027 v -8.731251 h 32.665849 32.66584 l 0.30017,1.114756 c 0.91446,3.396044 1.64852,8.617675 1.95412,13.900349 l 0.14159,2.447396 H 101.85863 67.994851 Z m 0,-35.454168 v -8.73125 h 21.100559 21.10056 l 2.77809,2.465399 c 2.939,2.608204 5.77062,5.628271 8.37038,8.927435 1.60469,2.036411 4.065,5.611448 4.065,5.90681 0,0.08957 -12.91829,0.162856 -28.707296,0.162856 H 67.994851 Z"
             id="path241" />
        </g>
      </g>
      <text
         xml:space="preserve"
         style="font-style:normal;font-weight:normal;font-size:62.4937px;line-height:1.25;font-family:sans-serif;fill:#000000;fill-opacity:1;stroke:none;stroke-width:1.56234"
         x="-138.4585"
         y="51.619755"
         id="text2522"
         transform="scale(1.0473107,0.95482649)"><tspan
           id="tspan2520"
           style="stroke-width:1.56234"
           x="-138.4585"
           y="51.619755"
           sodipodi:role="line">EN</tspan></text>
    </g>
  </g>
</svg>
