<?xml version="1.0" encoding="UTF-8" standalone="no"?>
<!-- Created with Inkscape (http://www.inkscape.org/) -->

<svg
   width="512"
   height="512"
   viewBox="0 0 135.46667 135.46667"
   version="1.1"
   id="svg5"
   inkscape:version="1.1 (c68e22c387, 2021-05-23)"
   sodipodi:docname="flag-es.svg"
   xmlns:inkscape="http://www.inkscape.org/namespaces/inkscape"
   xmlns:sodipodi="http://sodipodi.sourceforge.net/DTD/sodipodi-0.dtd"
   xmlns="http://www.w3.org/2000/svg"
   xmlns:svg="http://www.w3.org/2000/svg">
  <sodipodi:namedview
     id="namedview7"
     pagecolor="#505050"
     bordercolor="#eeeeee"
     borderopacity="1"
     inkscape:pageshadow="0"
     inkscape:pageopacity="0"
     inkscape:pagecheckerboard="0"
     inkscape:document-units="px"
     showgrid="false"
     inkscape:snap-global="true"
     inkscape:zoom="0.25292969"
     inkscape:cx="-610.8417"
     inkscape:cy="81.050193"
     inkscape:window-width="1024"
     inkscape:window-height="745"
     inkscape:window-x="-8"
     inkscape:window-y="-8"
     inkscape:window-maximized="1"
     inkscape:current-layer="layer1" />
  <defs
     id="defs2" />
  <g
     inkscape:label="Capa 1"
     inkscape:groupmode="layer"
     id="layer1">
    <g
       id="g6060"
       transform="translate(-1.0460747,-0.52303734)">
      <path
         style="fill:#f6ced5;stroke-width:0.264583"
         d="m 23.757296,118.59029 c -0.329107,-0.41965 -0.319749,-0.429 0.0999,-0.0999 0.254661,0.19972 0.463021,0.40808 0.463021,0.46302 0,0.21777 -0.217272,0.0776 -0.562916,-0.36312 z m 91.315004,0.0661 c 0.18116,-0.21829 0.38891,-0.39688 0.46167,-0.39688 0.0728,0 -0.0159,0.17859 -0.19709,0.39688 -0.18115,0.21828 -0.3889,0.39687 -0.46166,0.39687 -0.0728,0 0.0159,-0.17859 0.19708,-0.39687 z m -95.812921,-4.56407 c -0.329107,-0.41964 -0.319749,-0.429 0.0999,-0.0999 0.254662,0.19972 0.463021,0.40808 0.463021,0.46302 0,0.21776 -0.217272,0.0776 -0.562916,-0.36313 z m 100.310841,0.0662 c 0.18116,-0.21828 0.38891,-0.39688 0.46167,-0.39688 0.0728,0 -0.0159,0.1786 -0.19709,0.39688 -0.18116,0.21828 -0.38891,0.39687 -0.46167,0.39687 -0.0728,0 0.0159,-0.17859 0.19709,-0.39687 z M 19.293128,22.877263 c 0.181158,-0.218281 0.388908,-0.396875 0.461669,-0.396875 0.07276,0 -0.01593,0.178594 -0.197085,0.396875 -0.181158,0.218281 -0.388909,0.396875 -0.461669,0.396875 -0.07276,0 0.01593,-0.178594 0.197085,-0.396875 z m 100.243342,-0.06615 c -0.32911,-0.419644 -0.31975,-0.429002 0.0999,-0.09989 0.44073,0.345643 0.58089,0.562915 0.36313,0.562915 -0.0549,0 -0.2633,-0.208359 -0.46302,-0.463021 z M 23.791045,18.379346 c 0.181157,-0.218281 0.388908,-0.396875 0.461669,-0.396875 0.07276,0 -0.01593,0.178594 -0.197086,0.396875 -0.181157,0.218282 -0.388908,0.396875 -0.461668,0.396875 -0.07276,0 0.01593,-0.178593 0.197085,-0.396875 z m 91.247505,-0.06615 c -0.32911,-0.419643 -0.31975,-0.429002 0.0999,-0.09989 0.44073,0.345643 0.58088,0.562915 0.36312,0.562915 -0.0549,0 -0.2633,-0.208359 -0.46302,-0.463021 z"
         id="path5804" />
      <path
         style="fill:#feeca3;stroke-width:0.264583"
         d="m 135.73069,82.430562 c -0.0115,-0.278913 0.0511,-0.435184 0.13897,-0.347265 0.0879,0.08792 0.0973,0.316121 0.0209,0.507119 -0.0845,0.211066 -0.14716,0.148373 -0.15985,-0.159854 z m 0.52917,-2.910416 c -0.0115,-0.278914 0.051,-0.435184 0.13896,-0.347266 0.0879,0.08792 0.0973,0.316121 0.0209,0.507119 -0.0845,0.211066 -0.14716,0.148373 -0.15985,-0.159853 z M 2.3806828,77.932646 c -0.011488,-0.278914 0.051045,-0.435185 0.1389643,-0.347266 0.087919,0.08792 0.097319,0.316121 0.020888,0.507119 -0.084462,0.211066 -0.1471567,0.148373 -0.1598523,-0.159853 z m 134.1437572,0 c -0.0115,-0.278914 0.0511,-0.435185 0.13897,-0.347266 0.0879,0.08792 0.0973,0.316121 0.0209,0.507119 -0.0845,0.211066 -0.14716,0.148373 -0.15985,-0.159853 z M 2.1369876,75.661639 c 0,-0.363802 0.060053,-0.51263 0.1334522,-0.330729 0.073399,0.181901 0.073399,0.479558 0,0.661459 -0.073399,0.181901 -0.1334522,0.03307 -0.1334522,-0.33073 z m 134.6729224,0 c 0,-0.363802 0.0601,-0.51263 0.13345,-0.330729 0.0734,0.181901 0.0734,0.479558 0,0.661459 -0.0734,0.181901 -0.13345,0.03307 -0.13345,-0.33073 z M 1.8973515,72.618931 c -0.00294,-0.582083 0.048843,-0.851363 0.1150665,-0.598398 0.066223,0.252966 0.068626,0.729216 0.00534,1.058334 -0.063287,0.329118 -0.1174692,0.122147 -0.1204055,-0.459936 z M 137.09944,72.354348 c -0.003,-0.582084 0.0489,-0.851363 0.11507,-0.598398 0.0662,0.252966 0.0686,0.729216 0.005,1.058333 -0.0633,0.329118 -0.11747,0.122148 -0.1204,-0.459935 z m 0,-7.672917 c -0.003,-0.582084 0.0489,-0.851363 0.11507,-0.598398 0.0662,0.252966 0.0686,0.729216 0.005,1.058334 -0.0633,0.329117 -0.11747,0.122147 -0.1204,-0.459936 z M 1.8973515,64.416847 c -0.00294,-0.582083 0.048843,-0.851363 0.1150665,-0.598397 0.066223,0.252965 0.068626,0.729215 0.00534,1.058333 -0.063287,0.329118 -0.1174692,0.122148 -0.1204055,-0.459936 z m 0.2396361,-3.042708 c 0,-0.363802 0.060053,-0.51263 0.1334522,-0.330729 0.073399,0.181901 0.073399,0.479557 0,0.661458 -0.073399,0.181901 -0.1334522,0.03307 -0.1334522,-0.330729 z m 134.6729224,0 c 0,-0.363802 0.0601,-0.51263 0.13345,-0.330729 0.0734,0.181901 0.0734,0.479557 0,0.661458 -0.0734,0.181901 -0.13345,0.03307 -0.13345,-0.330729 z M 2.3806828,59.147228 c -0.011488,-0.278913 0.051045,-0.435184 0.1389643,-0.347265 0.087919,0.08792 0.097319,0.316121 0.020888,0.507119 -0.084462,0.211066 -0.1471567,0.148373 -0.1598523,-0.159854 z m 134.1437572,0 c -0.0115,-0.278913 0.0511,-0.435184 0.13897,-0.347265 0.0879,0.08792 0.0973,0.316121 0.0209,0.507119 -0.0845,0.211066 -0.14716,0.148373 -0.15985,-0.159854 z m -0.26458,-1.5875 c -0.0115,-0.278913 0.051,-0.435184 0.13896,-0.347265 0.0879,0.08792 0.0973,0.316121 0.0209,0.507119 -0.0845,0.211066 -0.14716,0.148373 -0.15985,-0.159854 z"
         id="path5802" />
      <path
         style="fill:#ee9aa9;stroke-width:0.264583"
         d="m 21.542087,116.40748 c -0.716664,-0.72761 -1.243493,-1.32292 -1.170733,-1.32292 0.07276,0 0.718653,0.59531 1.435316,1.32292 0.716663,0.7276 1.243493,1.32291 1.170733,1.32291 -0.07276,0 -0.718653,-0.59531 -1.435316,-1.32291 z m 94.853133,0.92604 c 0.18116,-0.21828 0.38891,-0.39688 0.46167,-0.39688 0.0728,0 -0.0159,0.1786 -0.19709,0.39688 -0.18116,0.21828 -0.38891,0.39687 -0.46167,0.39687 -0.0728,0 0.0159,-0.17859 0.19709,-0.39687 z M 20.880628,21.397156 c 0,-0.07276 0.47625,-0.597337 1.058334,-1.165726 0.582083,-0.56839 1.058333,-0.973904 1.058333,-0.901144 0,0.07276 -0.47625,0.597338 -1.058333,1.165727 -0.582084,0.568389 -1.058334,0.973904 -1.058334,0.901143 z m 95.216252,-2.025622 c -0.3291,-0.419644 -0.31974,-0.429002 0.0999,-0.09989 0.44073,0.345644 0.58089,0.562916 0.36313,0.562916 -0.055,0 -0.2633,-0.20836 -0.46303,-0.463021 z"
         id="path5800" />
      <path
         style="fill:#fed943;stroke-width:0.264583"
         d="M 5.1282291,89.089313 C 2.89719,82.188019 1.9992485,76.284522 1.9992485,68.517889 c 0,-7.766632 0.8979415,-13.670129 3.1289806,-20.571423 L 6.0904653,44.969972 H 69.555396 133.02033 l 0.80454,2.447396 c 4.49845,13.684139 4.50035,28.618112 0.005,42.201043 l -0.80991,2.447395 H 69.555396 6.0904653 Z"
         id="path5798" />
      <path
         style="fill:#e8758a;stroke-width:0.264583"
         d="m 65.402286,136.09137 c 0.08792,-0.0879 0.316122,-0.0973 0.507119,-0.0209 0.211066,0.0845 0.148373,0.14715 -0.159853,0.15985 -0.278913,0.0115 -0.435184,-0.0511 -0.347266,-0.13897 z m 7.672917,0 c 0.08792,-0.0879 0.316122,-0.0973 0.507119,-0.0209 0.211066,0.0845 0.148373,0.14715 -0.159853,0.15985 -0.278913,0.0115 -0.435184,-0.0511 -0.347266,-0.13897 z m 44.378347,-19.81618 c 0.34178,-0.36381 0.68094,-0.66146 0.7537,-0.66146 0.0728,0 -0.14734,0.29765 -0.48912,0.66146 -0.34177,0.3638 -0.68093,0.66145 -0.7537,0.66145 -0.0728,0 0.14735,-0.29765 0.48912,-0.66145 z m -0.13229,-95.646885 c -0.41825,-0.436563 -0.70093,-0.79375 -0.62817,-0.79375 0.0728,0 0.4745,0.357187 0.89275,0.79375 0.41826,0.436562 0.70093,0.79375 0.62817,0.79375 -0.0728,0 -0.4745,-0.357188 -0.89275,-0.79375 z"
         id="path5796" />
      <path
         style="fill:#e3546d;stroke-width:0.264583"
         d="m 65.931453,0.88928505 c 0.08792,-0.0879188 0.316122,-0.0973185 0.507119,-0.0208882 0.211066,0.084462 0.148373,0.14715665 -0.159853,0.15985245 -0.278913,0.011489 -0.435184,-0.0510454 -0.347266,-0.13896425 z m 6.614584,0 c 0.08792,-0.0879188 0.316121,-0.0973185 0.507119,-0.0208882 0.211066,0.084462 0.148373,0.14715665 -0.159854,0.15985245 -0.278913,0.011489 -0.435184,-0.0510454 -0.347265,-0.13896425 z"
         id="path5794" />
      <path
         style="fill:#dd2d4c;stroke-width:0.264583"
         d="m 66.984275,136.06884 c 0.254662,-0.0666 0.67138,-0.0666 0.926042,0 0.254661,0.0665 0.0463,0.121 -0.463021,0.121 -0.509323,0 -0.717682,-0.0545 -0.463021,-0.121 z m 4.233334,0 c 0.254661,-0.0666 0.67138,-0.0666 0.926041,0 0.254662,0.0665 0.0463,0.121 -0.46302,0.121 -0.509323,0 -0.717683,-0.0545 -0.463021,-0.121 z M 24.286463,118.85487 c -0.329108,-0.41964 -0.319749,-0.429 0.0999,-0.0999 0.254661,0.19972 0.46302,0.40808 0.46302,0.46302 0,0.21776 -0.217272,0.0776 -0.562915,-0.36313 z m 90.256667,0.0662 c 0.18116,-0.21828 0.38891,-0.39688 0.46167,-0.39688 0.0728,0 -0.0159,0.1786 -0.19708,0.39688 -0.18116,0.21828 -0.38891,0.39687 -0.46167,0.39687 -0.0728,0 0.0159,-0.17859 0.19708,-0.39687 z m -95.548334,-5.35781 c -0.329108,-0.41965 -0.319749,-0.42901 0.0999,-0.0999 0.254661,0.19972 0.463021,0.40808 0.463021,0.46302 0,0.21776 -0.217273,0.0776 -0.562916,-0.36312 z m 100.840004,0.0661 c 0.18116,-0.21828 0.38891,-0.39687 0.46167,-0.39687 0.0728,0 -0.0159,0.17859 -0.19709,0.39687 -0.18115,0.21828 -0.3889,0.39688 -0.46166,0.39688 -0.0728,0 0.0159,-0.1786 0.19708,-0.39688 z M 19.028545,23.40643 c 0.181157,-0.218281 0.388908,-0.396875 0.461668,-0.396875 0.07276,0 -0.01593,0.178594 -0.197085,0.396875 -0.181157,0.218281 -0.388908,0.396875 -0.461668,0.396875 -0.07276,0 0.01593,-0.178594 0.197085,-0.396875 z m 5.291667,-5.291667 c 0.181157,-0.218281 0.388908,-0.396875 0.461668,-0.396875 0.07276,0 -0.01593,0.178594 -0.197085,0.396875 -0.181157,0.218281 -0.388908,0.396875 -0.461669,0.396875 -0.07276,0 0.01593,-0.178594 0.197086,-0.396875 z m 90.189168,-0.06615 c -0.3291,-0.419644 -0.31974,-0.429002 0.0999,-0.0999 0.44073,0.345644 0.58089,0.562916 0.36313,0.562916 -0.0549,0 -0.2633,-0.208359 -0.46303,-0.463021 z M 66.984275,0.86675344 c 0.254662,-0.06655 0.67138,-0.06655 0.926042,0 0.254661,0.06655 0.0463,0.121 -0.463021,0.121 -0.509323,0 -0.717682,-0.05445 -0.463021,-0.121 z m 4.233334,0 c 0.254661,-0.06655 0.67138,-0.06655 0.926041,0 0.254662,0.06655 0.0463,0.121 -0.46302,0.121 -0.509323,0 -0.717683,-0.05445 -0.463021,-0.121 z"
         id="path5792" />
      <path
         style="fill:#d70026;stroke-width:0.264583"
         d="M 65.330629,135.97418 C 42.186879,134.46803 21.718672,121.51399 10.375624,101.19393 8.9938549,98.718617 6.3285448,92.909592 6.3285448,92.37335 c 0,-0.232812 15.3661162,-0.307544 63.2354182,-0.307544 36.115977,0 63.235427,0.09961 63.235427,0.232273 0,0.619252 -2.4527,6.016175 -4.04283,8.895851 -10.01967,18.14532 -28.12367,30.85201 -48.609264,34.11752 -2.24042,0.35714 -10.35562,0.99862 -11.377083,0.89932 -0.218281,-0.0212 -1.766094,-0.12768 -3.439584,-0.23659 z M 6.3285448,44.662428 c 0,-0.169148 0.6120185,-1.687195 1.3600412,-3.373437 C 16.426135,21.592227 33.984727,7.1519996 54.815548,2.5316677 65.228291,0.22209265 76.730044,0.45090093 86.947652,3.1708826 105.56913,8.1280184 121.34195,20.946153 129.91008,38.085257 c 1.47207,2.944646 2.88931,6.21425 2.88931,6.665748 0,0.120431 -28.45594,0.218967 -63.235427,0.218967 -47.869302,0 -63.2354182,-0.07473 -63.2354182,-0.307544 z"
         id="path5790" />
    </g>
    <text
       xml:space="preserve"
       style="font-style:normal;font-weight:normal;font-size:62.4937px;line-height:1.25;font-family:sans-serif;fill:#000000;fill-opacity:1;stroke:none;stroke-width:1.56234"
       x="25.725294"
       y="121.86669"
       id="text2522-5"
       transform="scale(1.0473107,0.95482649)"><tspan
         id="tspan2520-3"
         style="stroke-width:1.56234"
         x="25.725294"
         y="121.86669"
         sodipodi:role="line">ES</tspan></text>
  </g>
</svg>
